# 3ds Max Wavefront OBJ Exporter v0.97b - (c)2007 guruware
# File Created: 27.12.2020 23:52:00

mtllib paper.mtl

#
# object paper_sheet
#

v  -0.0592 0.5268 4.3245
v  -4.4636 0.4994 4.3498
v  -4.4315 0.5623 9.9457
v  -0.0266 0.5898 9.9194
v  4.3767 0.5064 9.8947
v  4.3446 0.5238 4.2993
v  8.4981 0.5919 7.8102
v  8.4990 0.5512 7.6285
v  8.2920 0.5391 7.4491
v  6.4274 0.5665 8.3500
v  5.8736 0.5438 9.8762
v  6.2720 0.4869 8.4326
v  5.8728 0.5650 9.8773
v  8.4973 0.6131 7.8112
v  6.4269 0.5877 8.3510
v  -0.0932 0.5313 -1.5043
v  -4.4971 0.6055 -1.4790
v  4.3216 0.5439 0.2766
v  4.3107 0.5678 -1.5300
v  7.9877 0.5971 -1.5506
v  8.4763 0.6215 -0.3025
v  -6.0715 0.4892 -7.3000
v  -7.7024 0.5231 -1.7365
v  -7.6076 0.5179 -1.7039
v  -8.6457 0.5074 -7.2852
v  -7.8037 0.5425 -1.7359
v  -8.6330 0.5344 -1.8398
v  -4.5305 0.5555 -7.3083
v  -0.1266 0.5664 -7.3341
v  4.3010 0.5866 -3.3077
v  4.2772 0.5947 -7.3588
v  8.3571 0.5162 -3.3310
v  8.4123 0.5704 -7.3826
v  -4.5533 0.5007 -11.3243
v  -0.1576 0.5784 -12.7385
v  -4.5614 0.5328 -12.6983
v  4.2281 0.5406 -12.7435
v  8.3589 0.6191 -12.8629
v  -7.4386 0.5248 7.6584
v  -7.4208 0.5460 7.7545
v  -7.4375 0.5336 7.8499
v  -8.5860 0.5767 8.2793
v  -7.9358 0.5454 7.5769
v  -8.5979 0.4962 4.3735
v  -7.4875 0.4615 7.9350
v  -7.5643 0.4879 7.9976
v  -7.8434 0.4654 8.6937
v  -7.7649 0.5368 9.1621
v  -7.6595 0.5075 8.0312
v  -7.9739 0.5316 8.9517
v  -8.0966 0.5460 9.4880
v  -7.9387 0.5058 8.9872
v  -8.0055 0.5514 8.9192
v  -8.0344 0.5327 8.8904
v  -8.0547 0.5395 8.8698
v  -8.3710 0.5736 8.7909
v  -8.3083 0.5633 8.6136
v  -8.5473 0.5508 8.3732
v  -7.8593 0.5400 7.5133
v  -7.7635 0.5681 7.4801
v  -7.6627 0.5953 7.4796
v  -7.5679 0.5822 7.5121
v  -7.4896 0.5407 7.5743
v  -7.4774 0.6190 -1.3662
v  -7.4608 0.5954 -1.4625
v  -7.5275 0.6121 -1.2810
v  -7.6051 0.6629 -1.2185
v  -8.0263 0.5566 -1.5545
v  -7.9757 0.5331 -1.6392
v  -7.6995 0.6171 -1.1843
v  -7.8008 0.5730 -1.1837
v  -7.8964 0.5256 -1.2173
v  -7.9737 0.5408 -1.2784
v  -8.0247 0.5269 -1.3625
v  -8.0430 0.5550 -1.4587
v  -7.8979 0.5867 -1.7022
v  -7.5295 0.5159 -1.6417
v  -7.4785 0.5720 -1.5576
v  -7.8088 0.5752 -10.8610
v  -7.7066 0.4896 -10.8616
v  -7.8597 0.5067 -11.7840
v  -7.9037 0.5297 -10.8263
v  -8.6591 0.5040 -10.9700
v  -7.9782 0.5205 -10.4036
v  -8.0292 0.5135 -10.4851
v  -8.0480 0.5481 -10.5838
v  -8.0308 0.5243 -10.6791
v  -7.9813 0.5226 -10.7638
v  -7.6129 0.5038 -10.8290
v  -7.5351 0.5128 -10.7663
v  -7.3656 0.4895 -12.6045
v  -7.9009 0.5333 -10.3414
v  -7.8051 0.5238 -10.3093
v  -7.7040 0.5546 -10.3094
v  -7.6096 0.5315 -10.3431
v  -7.5320 0.5479 -10.4061
v  -7.4825 0.5060 -10.4903
v  -7.4653 0.5318 -10.5866
v  -7.4836 0.4928 -10.6828
v  -8.5505 0.5478 8.3707
v  -7.7665 0.5581 9.1611
v  -7.6048 0.5750 9.9308
v  7.1874 0.5709 8.7907
v  8.5166 0.5632 4.2759
v  -7.5740 0.5315 9.9575
v  -7.9366 0.4845 8.9882
v  -7.6032 0.5538 9.9313
v  -7.7606 0.4910 8.0318
v  -7.8557 0.5146 7.9997
v  -7.9717 0.5103 8.9522
v  -7.9337 0.5314 7.9376
v  -8.3061 0.5420 8.6146
v  -8.0039 0.5302 8.9203
v  -8.0323 0.5115 8.8914
v  -7.9845 0.5560 7.8530
v  -8.0531 0.5182 8.8703
v  -8.0033 0.5555 7.7579
v  -7.9864 0.5081 7.6620
v  -8.5457 0.5296 8.3737
v  -8.5489 0.5265 8.3707
v  -8.0952 0.5247 9.4890
# 121 vertices

vn -0.0029 1.0000 -0.0052
vn 0.0034 1.0000 0.0045
vn -0.0158 0.9997 -0.0207
vn 0.0130 0.9997 -0.0225
vn 0.0081 0.9997 -0.0232
vn -0.0086 0.9999 0.0089
vn 0.2946 0.8649 -0.4064
vn 0.1512 0.9437 -0.2941
vn -0.0529 0.9950 -0.0842
vn -0.6687 0.6546 -0.3526
vn -0.3365 0.9100 0.2423
vn -0.4604 0.8874 -0.0230
vn -0.4916 0.5163 0.7012
vn 0.7385 0.5627 -0.3714
vn -0.5468 0.6206 -0.5620
vn 0.0014 1.0000 0.0098
vn 0.0121 0.9999 -0.0077
vn -0.0168 0.9997 0.0149
vn -0.0167 0.9996 0.0238
vn -0.0082 0.9994 -0.0324
vn -0.0383 0.9993 0.0020
vn -0.0296 0.9995 -0.0067
vn 0.2036 0.9789 -0.0196
vn 0.0106 0.9997 0.0238
vn 0.0039 1.0000 0.0085
vn 0.2004 0.9444 -0.2605
vn -0.0329 0.9994 -0.0055
vn -0.0430 0.9989 -0.0175
vn -0.0108 0.9999 -0.0000
vn -0.0000 1.0000 0.0052
vn 0.0023 1.0000 -0.0051
vn 0.0293 0.9991 -0.0303
vn 0.0018 0.9999 0.0110
vn -0.0197 0.9997 0.0128
vn -0.0072 0.9999 0.0087
vn -0.0256 0.9986 0.0466
vn -0.0070 1.0000 -0.0015
vn -0.0387 0.9991 0.0180
vn 0.1634 0.9860 -0.0342
vn 0.1700 0.9564 -0.2374
vn -0.3328 0.8359 0.4366
vn 0.2759 0.8911 0.3602
vn 0.2178 0.9717 0.0916
vn -0.0199 0.9998 0.0011
vn -0.1375 0.9201 0.3667
vn 0.6480 0.7022 0.2952
vn -0.0119 0.9956 -0.0934
vn 0.5283 0.7418 -0.4131
vn 0.1716 0.9706 0.1689
vn 0.8668 0.3977 -0.3007
vn -0.6640 0.6347 0.3953
vn 0.7572 0.3797 -0.5315
vn 0.1949 0.8409 -0.5049
vn 0.5637 0.5861 -0.5820
vn 0.6312 0.7546 -0.1797
vn -0.5111 0.8299 0.2239
vn 0.5210 0.6923 -0.4993
vn -0.2575 0.7369 -0.6250
vn -0.1542 0.9880 0.0076
vn -0.4896 0.8676 0.0867
vn 0.0192 0.9974 -0.0689
vn 0.3149 0.9403 0.1294
vn 0.3701 0.8750 0.3121
vn 0.0064 0.9971 -0.0753
vn -0.0088 0.8984 -0.4392
vn -0.0399 0.7671 -0.6402
vn -0.2540 0.9343 -0.2501
vn 0.0185 0.9817 -0.1896
vn -0.1046 0.9339 0.3420
vn -0.6990 0.7108 -0.0779
vn -0.6842 0.7255 -0.0744
vn -0.0899 0.9959 -0.0004
vn 0.1295 0.9909 -0.0357
vn 0.2745 0.9108 -0.3082
vn -0.3055 0.8814 0.3604
vn -0.0073 0.8156 -0.5785
vn -0.0504 0.9836 -0.1733
vn 0.0012 0.7434 -0.6689
vn 0.0266 0.9887 -0.1476
vn 0.2186 0.9758 0.0010
vn 0.0210 0.9993 -0.0324
vn -0.3258 0.9453 -0.0164
vn -0.0645 0.9977 -0.0187
vn -0.1012 0.9939 -0.0438
vn 0.0323 0.9963 -0.0792
vn -0.3060 0.9165 0.2576
vn 0.0595 0.9645 -0.2575
vn -0.0710 0.9964 0.0456
vn -0.3045 0.9490 0.0816
vn -0.0160 0.9894 0.1440
vn 0.0021 1.0000 -0.0084
vn -0.0916 0.9958 -0.0046
vn -0.2042 0.9779 -0.0440
vn -0.0351 0.9921 -0.1208
vn 0.0485 0.9988 0.0041
vn 0.3607 0.9238 -0.1286
vn 0.2777 0.9574 0.0799
vn 0.0248 0.9996 0.0107
vn -0.0245 0.9962 -0.0831
vn -0.6078 0.2271 -0.7610
vn 0.5263 0.7200 -0.4523
vn 0.3813 0.5857 0.7153
vn -0.0600 -0.9910 -0.1193
vn -0.0255 0.9996 0.0157
vn 0.3473 0.9353 -0.0679
vn 0.4723 0.7647 -0.4384
vn 0.9087 0.3758 0.1817
vn 0.0634 0.9944 0.0844
vn 0.3455 0.9296 0.1281
vn 0.8685 0.3833 -0.3143
vn 0.2752 0.9352 0.2229
vn 0.6082 0.6358 -0.4753
vn 0.6963 0.3121 -0.6464
vn 0.4143 0.6893 -0.5943
vn 0.1689 0.9764 0.1349
vn 0.7089 0.5228 -0.4735
vn -0.4015 0.7709 -0.4945
vn 0.6737 0.5330 0.5119
vn 0.5140 0.7794 -0.3583
vn -0.9356 0.0828 0.3432
vn -0.8280 -0.0118 0.5606
# 121 vertex normals

vt 0.4992 0.2464 0.0000
vt 0.2534 0.2464 0.0000
vt 0.2534 0.0005 0.0000
vt 0.4992 0.0005 0.0000
vt 0.7450 0.0005 0.0000
vt 0.7450 0.2464 0.0000
vt 0.9758 0.0911 0.0000
vt 0.9759 0.0990 0.0000
vt 0.9644 0.1070 0.0000
vt 0.8600 0.0679 0.0000
vt 0.8286 0.0009 0.0000
vt 0.8513 0.0643 0.0000
vt 0.4992 0.5025 0.0000
vt 0.2534 0.5025 0.0000
vt 0.7450 0.4231 0.0000
vt 0.7450 0.5025 0.0000
vt 0.9502 0.5025 0.0000
vt 0.9771 0.4476 0.0000
vt 0.1674 0.7587 0.0000
vt 0.0746 0.5146 0.0000
vt 0.0799 0.5132 0.0000
vt 0.0237 0.7587 0.0000
vt 0.0689 0.5146 0.0000
vt 0.0227 0.5194 0.0000
vt 0.2534 0.7587 0.0000
vt 0.4992 0.7587 0.0000
vt 0.7450 0.5807 0.0000
vt 0.7450 0.7587 0.0000
vt 0.9715 0.5807 0.0000
vt 0.9758 0.7587 0.0000
vt 0.2534 0.9351 0.0000
vt 0.4992 0.9961 0.0000
vt 0.2534 0.9955 0.0000
vt 0.7440 0.9953 0.0000
vt 0.9746 0.9995 0.0000
vt 0.0863 0.1017 0.0000
vt 0.0873 0.0975 0.0000
vt 0.0863 0.0933 0.0000
vt 0.0221 0.0747 0.0000
vt 0.0586 0.1054 0.0000
vt 0.0226 0.2464 0.0000
vt 0.0835 0.0896 0.0000
vt 0.0792 0.0869 0.0000
vt 0.0634 0.0564 0.0000
vt 0.0676 0.0358 0.0000
vt 0.0739 0.0854 0.0000
vt 0.0561 0.0450 0.0000
vt 0.0491 0.0215 0.0000
vt 0.0581 0.0434 0.0000
vt 0.0544 0.0464 0.0000
vt 0.0528 0.0477 0.0000
vt 0.0516 0.0486 0.0000
vt 0.0340 0.0522 0.0000
vt 0.0375 0.0599 0.0000
vt 0.0243 0.0706 0.0000
vt 0.0629 0.1082 0.0000
vt 0.0682 0.1097 0.0000
vt 0.0739 0.1097 0.0000
vt 0.0792 0.1082 0.0000
vt 0.0835 0.1054 0.0000
vt 0.0870 0.4983 0.0000
vt 0.0880 0.5025 0.0000
vt 0.0842 0.4946 0.0000
vt 0.0799 0.4918 0.0000
vt 0.0565 0.5067 0.0000
vt 0.0593 0.5104 0.0000
vt 0.0746 0.4904 0.0000
vt 0.0689 0.4904 0.0000
vt 0.0636 0.4918 0.0000
vt 0.0593 0.4946 0.0000
vt 0.0565 0.4983 0.0000
vt 0.0555 0.5025 0.0000
vt 0.0636 0.5132 0.0000
vt 0.0842 0.5104 0.0000
vt 0.0870 0.5067 0.0000
vt 0.0716 0.9156 0.0000
vt 0.0772 0.9156 0.0000
vt 0.0691 0.9561 0.0000
vt 0.0663 0.9141 0.0000
vt 0.0242 0.9206 0.0000
vt 0.0620 0.8955 0.0000
vt 0.0592 0.8991 0.0000
vt 0.0582 0.9035 0.0000
vt 0.0591 0.9077 0.0000
vt 0.0620 0.9114 0.0000
vt 0.0825 0.9141 0.0000
vt 0.0868 0.9114 0.0000
vt 0.0969 0.9921 0.0000
vt 0.0663 0.8928 0.0000
vt 0.0716 0.8913 0.0000
vt 0.0772 0.8913 0.0000
vt 0.0825 0.8928 0.0000
vt 0.0868 0.8955 0.0000
vt 0.0897 0.8992 0.0000
vt 0.0907 0.9035 0.0000
vt 0.0897 0.9077 0.0000
vt 0.0241 0.0707 0.0000
vt 0.0764 0.0019 0.0000
vt 0.9023 0.0483 0.0000
vt 0.9779 0.2464 0.0000
vt 0.0780 0.0008 0.0000
vt 0.0682 0.0854 0.0000
vt 0.0629 0.0869 0.0000
vt 0.0586 0.0896 0.0000
vt 0.0558 0.0933 0.0000
vt 0.0548 0.0975 0.0000
vt 0.0558 0.1017 0.0000
# 107 texture coords

o paper_sheet
g paper_sheet
usemtl wire_184155229
f 1/1/1 2/2/2 3/3/3 
f 3/3/3 4/4/4 1/1/1 
f 5/5/5 1/1/1 4/4/4 
f 1/1/1 5/5/5 6/6/6 
f 7/7/7 8/8/8 9/9/9 
f 7/7/7 9/9/9 10/10/10 
f 11/11/11 10/10/10 12/12/12 
f 13/11/13 14/7/14 15/10/15 
f 16/13/16 17/14/17 2/2/2 
f 2/2/2 1/1/1 16/13/16 
f 1/1/1 6/6/6 18/15/18 
f 16/13/16 18/15/18 19/16/19 
f 1/1/1 18/15/18 16/13/16 
f 18/15/18 20/17/20 19/16/19 
f 20/17/20 18/15/18 21/18/21 
f 22/19/22 23/20/23 24/21/24 
f 25/22/25 26/23/26 23/20/23 
f 27/24/27 26/23/26 25/22/25 
f 16/13/16 28/25/28 17/14/17 
f 28/25/28 16/13/16 29/26/29 
f 16/13/16 19/16/19 30/27/30 
f 29/26/29 30/27/30 31/28/31 
f 16/13/16 30/27/30 29/26/29 
f 32/29/32 31/28/31 30/27/30 
f 31/28/31 32/29/32 33/30/33 
f 34/31/34 29/26/29 35/32/35 
f 35/32/35 36/33/36 34/31/34 
f 28/25/28 29/26/29 34/31/34 
f 37/34/37 35/32/35 29/26/29 
f 29/26/29 31/28/31 37/34/37 
f 33/30/33 37/34/37 31/28/31 
f 37/34/37 33/30/33 38/35/38 
f 3/3/3 2/2/2 39/36/39 
f 40/37/40 41/38/41 3/3/3 
f 42/39/42 43/40/43 44/41/44 
f 45/42/45 46/43/46 47/44/47 
f 3/3/3 45/42/45 48/45/48 
f 45/42/45 47/44/47 48/45/48 
f 49/46/49 47/44/47 46/43/46 
f 50/47/50 51/48/51 52/49/52 
f 53/50/53 51/48/51 50/47/50 
f 54/51/54 51/48/51 53/50/53 
f 55/52/55 56/53/56 54/51/54 
f 56/53/56 51/48/51 54/51/54 
f 55/52/55 57/54/57 56/53/56 
f 58/55/58 56/53/56 57/54/57 
f 43/40/43 59/56/59 44/41/44 
f 59/56/59 60/57/60 44/41/44 
f 60/57/60 61/58/61 44/41/44 
f 61/58/61 62/59/62 44/41/44 
f 2/2/2 62/59/62 63/60/63 
f 62/59/62 2/2/2 44/41/44 
f 63/60/63 39/36/39 2/2/2 
f 39/36/39 40/37/40 3/3/3 
f 64/61/64 17/14/17 65/62/65 
f 66/63/66 17/14/17 64/61/64 
f 2/2/2 17/14/17 67/64/67 
f 67/64/67 17/14/17 66/63/66 
f 41/38/41 45/42/45 3/3/3 
f 68/65/68 69/66/69 27/24/27 
f 2/2/2 67/64/67 44/41/44 
f 67/64/67 70/67/70 44/41/44 
f 70/67/70 71/68/71 44/41/44 
f 71/68/71 72/69/72 44/41/44 
f 72/69/72 73/70/73 44/41/44 
f 73/70/73 74/71/74 27/24/27 
f 74/71/74 75/72/75 27/24/27 
f 75/72/75 68/65/68 27/24/27 
f 27/24/27 44/41/44 73/70/73 
f 69/66/69 76/73/76 27/24/27 
f 76/73/76 26/23/26 27/24/27 
f 22/19/22 25/22/25 23/20/23 
f 22/19/22 24/21/24 17/14/17 
f 28/25/28 22/19/22 17/14/17 
f 24/21/24 77/74/77 17/14/17 
f 77/74/77 78/75/78 17/14/17 
f 78/75/78 65/62/65 17/14/17 
f 79/76/79 80/77/80 81/78/81 
f 82/79/82 81/78/81 83/80/83 
f 83/80/83 84/81/84 85/82/85 
f 83/80/83 85/82/85 86/83/86 
f 83/80/83 86/83/86 87/84/87 
f 83/80/83 87/84/87 88/85/88 
f 83/80/83 88/85/88 82/79/82 
f 81/78/81 82/79/82 79/76/79 
f 80/77/80 89/86/89 81/78/81 
f 89/86/89 90/87/90 81/78/81 
f 90/87/90 91/88/91 81/78/81 
f 34/31/34 91/88/91 90/87/90 
f 34/31/34 22/19/22 28/25/28 
f 84/81/84 83/80/83 25/22/25 
f 92/89/92 84/81/84 25/22/25 
f 93/90/93 92/89/92 25/22/25 
f 94/91/94 93/90/93 25/22/25 
f 95/92/95 94/91/94 22/19/22 
f 96/93/96 95/92/95 22/19/22 
f 97/94/97 96/93/96 22/19/22 
f 34/31/34 97/94/97 22/19/22 
f 34/31/34 98/95/98 97/94/97 
f 34/31/34 99/96/99 98/95/98 
f 34/31/34 90/87/90 99/96/99 
f 94/91/94 25/22/25 22/19/22 
f 34/31/34 36/33/36 91/88/91 
f 56/53/56 100/97/100 51/48/51 
f 100/97/100 56/53/56 58/55/58 
f 101/45/101 52/49/52 51/48/51 
f 51/48/51 102/98/102 101/45/101 
f 11/11/11 103/99/103 7/7/7 
f 20/17/20 30/27/30 19/16/19 
f 30/27/30 20/17/20 32/29/32 
f 104/100/104 21/18/21 18/15/18 
f 18/15/18 6/6/6 104/100/104 
f 9/9/9 8/8/8 104/100/104 
f 6/6/6 9/9/9 104/100/104 
f 6/6/6 10/10/10 9/9/9 
f 12/12/12 10/10/10 6/6/6 
f 12/12/12 6/6/6 5/5/5 
f 12/12/12 5/5/5 11/11/11 
f 48/45/48 105/101/105 3/3/3 
f 47/44/47 106/49/106 48/45/48 
f 107/98/107 105/101/105 48/45/48 
f 47/44/47 49/46/49 108/102/108 
f 109/103/109 47/44/47 108/102/108 
f 106/49/106 47/44/47 110/47/110 
f 111/104/111 112/54/112 109/103/109 
f 47/44/47 113/50/113 110/47/110 
f 112/54/112 47/44/47 109/103/109 
f 47/44/47 114/51/114 113/50/113 
f 42/39/42 111/104/111 115/105/115 
f 47/44/47 116/52/116 114/51/114 
f 115/105/115 117/106/117 42/39/42 
f 112/54/112 116/52/116 47/44/47 
f 42/39/42 118/107/118 43/40/43 
f 117/106/117 118/107/118 42/39/42 
f 111/104/111 42/39/42 119/55/119 
f 112/54/112 111/104/111 119/55/119 
f 119/55/119 42/39/42 120/97/120 
f 7/7/7 10/10/10 15/10/15 14/7/14 
f 10/10/10 11/11/11 13/11/13 15/10/15 
f 11/11/11 7/7/7 14/7/14 13/11/13 
f 106/49/106 110/47/110 50/47/50 52/49/52 
f 110/47/110 113/50/113 53/50/53 50/47/50 
f 113/50/113 114/51/114 54/51/54 53/50/53 
f 114/51/114 116/52/116 55/52/55 54/51/54 
f 116/52/116 112/54/112 57/54/57 55/52/55 
f 112/54/112 119/55/119 58/55/58 57/54/57 
f 119/55/119 120/97/120 100/97/100 58/55/58 
f 120/97/120 121/48/121 51/48/51 100/97/100 
f 121/48/121 107/98/107 102/98/102 51/48/51 
f 107/98/107 48/45/48 101/45/101 102/98/102 
f 48/45/48 106/49/106 52/49/52 101/45/101 
# 14 polygons - 137 triangles

